<mxfile host="app.diagrams.net" modified="2021-01-25T22:16:47.144Z" agent="5.0 (X11; Linux x86_64) AppleWebKit/537.36 (KHTML, like Gecko) Chrome/87.0.4280.88 Safari/537.36" etag="l7mSgUdwqibApajXBk6E" version="14.1.9" type="github">
  <diagram id="gGo_HANNamunfRI5R_BF" name="Page-1">
    <mxGraphModel dx="1465" dy="420" grid="1" gridSize="10" guides="1" tooltips="1" connect="1" arrows="1" fold="1" page="1" pageScale="1" pageWidth="827" pageHeight="1169" math="0" shadow="0">
      <root>
        <mxCell id="0" />
        <mxCell id="1" parent="0" />
        <mxCell id="54HAEkATlOph8lzNFxAA-1" value="cliente" style="swimlane;childLayout=stackLayout;horizontal=1;startSize=30;horizontalStack=0;rounded=1;fontSize=14;fontStyle=0;strokeWidth=2;resizeParent=0;resizeLast=1;shadow=0;dashed=0;align=center;" parent="1" vertex="1">
          <mxGeometry x="70" y="50" width="170" height="140" as="geometry" />
        </mxCell>
        <mxCell id="54HAEkATlOph8lzNFxAA-2" value="id_cliente PK&#xa;id_suscripcion FK&#xa;nombre_cliente&#xa;apellido_cliente&#xa;telefono&#xa;email&#xa;dia_pago_suscripcion&#xa;" style="align=left;strokeColor=none;fillColor=none;spacingLeft=4;fontSize=12;verticalAlign=top;resizable=0;rotatable=0;part=1;" parent="54HAEkATlOph8lzNFxAA-1" vertex="1">
          <mxGeometry y="30" width="170" height="110" as="geometry" />
        </mxCell>
        <mxCell id="54HAEkATlOph8lzNFxAA-3" value="" style="line;strokeWidth=1;fillColor=none;align=left;verticalAlign=middle;spacingTop=-1;spacingLeft=3;spacingRight=3;rotatable=0;labelPosition=right;points=[];portConstraint=eastwest;" parent="1" vertex="1">
          <mxGeometry x="-160" y="116" width="230" height="8" as="geometry" />
        </mxCell>
        <mxCell id="54HAEkATlOph8lzNFxAA-4" value="1" style="text;html=1;resizable=0;autosize=1;align=center;verticalAlign=middle;points=[];fillColor=none;strokeColor=none;rounded=0;" parent="1" vertex="1">
          <mxGeometry x="-150" y="90" width="20" height="20" as="geometry" />
        </mxCell>
        <mxCell id="54HAEkATlOph8lzNFxAA-5" value="N" style="text;html=1;resizable=0;autosize=1;align=center;verticalAlign=middle;points=[];fillColor=none;strokeColor=none;rounded=0;" parent="1" vertex="1">
          <mxGeometry x="30" y="90" width="20" height="20" as="geometry" />
        </mxCell>
        <mxCell id="54HAEkATlOph8lzNFxAA-6" value="pase_diario" style="swimlane;childLayout=stackLayout;horizontal=1;startSize=30;horizontalStack=0;rounded=1;fontSize=14;fontStyle=0;strokeWidth=2;resizeParent=0;resizeLast=1;shadow=0;dashed=0;align=center;" parent="1" vertex="1">
          <mxGeometry x="70" y="390" width="170" height="140" as="geometry" />
        </mxCell>
        <mxCell id="54HAEkATlOph8lzNFxAA-7" value="id_pase_diario PK&#xa;id_cliente FK&#xa;id_categoria FK&#xa;fecha_pase_diario&#xa;&#xa;&#xa;" style="align=left;strokeColor=none;fillColor=none;spacingLeft=4;fontSize=12;verticalAlign=top;resizable=0;rotatable=0;part=1;" parent="54HAEkATlOph8lzNFxAA-6" vertex="1">
          <mxGeometry y="30" width="170" height="110" as="geometry" />
        </mxCell>
        <mxCell id="54HAEkATlOph8lzNFxAA-8" value="" style="endArrow=none;html=1;entryX=0.5;entryY=1;entryDx=0;entryDy=0;" parent="1" source="54HAEkATlOph8lzNFxAA-6" target="54HAEkATlOph8lzNFxAA-2" edge="1">
          <mxGeometry width="50" height="50" relative="1" as="geometry">
            <mxPoint x="400" y="390" as="sourcePoint" />
            <mxPoint x="450" y="340" as="targetPoint" />
          </mxGeometry>
        </mxCell>
        <mxCell id="54HAEkATlOph8lzNFxAA-9" value="N" style="text;html=1;resizable=0;autosize=1;align=center;verticalAlign=middle;points=[];fillColor=none;strokeColor=none;rounded=0;" parent="1" vertex="1">
          <mxGeometry x="170" y="350" width="20" height="20" as="geometry" />
        </mxCell>
        <mxCell id="54HAEkATlOph8lzNFxAA-10" value="1" style="text;html=1;resizable=0;autosize=1;align=center;verticalAlign=middle;points=[];fillColor=none;strokeColor=none;rounded=0;" parent="1" vertex="1">
          <mxGeometry x="170" y="200" width="20" height="20" as="geometry" />
        </mxCell>
        <mxCell id="54HAEkATlOph8lzNFxAA-11" value="" style="endArrow=none;html=1;entryX=0.5;entryY=1;entryDx=0;entryDy=0;exitX=0.5;exitY=0;exitDx=0;exitDy=0;" parent="1" source="54HAEkATlOph8lzNFxAA-13" target="54HAEkATlOph8lzNFxAA-7" edge="1">
          <mxGeometry width="50" height="50" relative="1" as="geometry">
            <mxPoint x="150" y="620" as="sourcePoint" />
            <mxPoint x="370" y="580" as="targetPoint" />
          </mxGeometry>
        </mxCell>
        <mxCell id="54HAEkATlOph8lzNFxAA-12" style="edgeStyle=none;rounded=0;orthogonalLoop=1;jettySize=auto;html=1;" parent="1" source="54HAEkATlOph8lzNFxAA-13" edge="1">
          <mxGeometry relative="1" as="geometry">
            <mxPoint x="155" y="710.0000000000002" as="targetPoint" />
          </mxGeometry>
        </mxCell>
        <mxCell id="54HAEkATlOph8lzNFxAA-13" value="categoria" style="swimlane;childLayout=stackLayout;horizontal=1;startSize=30;horizontalStack=0;rounded=1;fontSize=14;fontStyle=0;strokeWidth=2;resizeParent=0;resizeLast=1;shadow=0;dashed=0;align=center;" parent="1" vertex="1">
          <mxGeometry x="70" y="710" width="170" height="140" as="geometry" />
        </mxCell>
        <mxCell id="54HAEkATlOph8lzNFxAA-14" value="id_categoria PK&#xa;nombre_categoria&#xa;precio_categoria&#xa;&#xa;&#xa;" style="align=left;strokeColor=none;fillColor=none;spacingLeft=4;fontSize=12;verticalAlign=top;resizable=0;rotatable=0;part=1;" parent="54HAEkATlOph8lzNFxAA-13" vertex="1">
          <mxGeometry y="30" width="170" height="110" as="geometry" />
        </mxCell>
        <mxCell id="54HAEkATlOph8lzNFxAA-15" value="N" style="text;html=1;resizable=0;autosize=1;align=center;verticalAlign=middle;points=[];fillColor=none;strokeColor=none;rounded=0;" parent="1" vertex="1">
          <mxGeometry x="160" y="540" width="20" height="20" as="geometry" />
        </mxCell>
        <mxCell id="54HAEkATlOph8lzNFxAA-16" value="1" style="text;html=1;resizable=0;autosize=1;align=center;verticalAlign=middle;points=[];fillColor=none;strokeColor=none;rounded=0;" parent="1" vertex="1">
          <mxGeometry x="160" y="680" width="20" height="20" as="geometry" />
        </mxCell>
        <mxCell id="54HAEkATlOph8lzNFxAA-17" value="suscripcion" style="swimlane;childLayout=stackLayout;horizontal=1;startSize=30;horizontalStack=0;rounded=1;fontSize=14;fontStyle=0;strokeWidth=2;resizeParent=0;resizeLast=1;shadow=0;dashed=0;align=center;" parent="1" vertex="1">
          <mxGeometry x="-330" y="50" width="170" height="140" as="geometry" />
        </mxCell>
        <mxCell id="54HAEkATlOph8lzNFxAA-18" value="id_suscripcion PK&#xa;nombre_suscripcion&#xa;precio_suscripcion&#xa;&#xa;&#xa;" style="align=left;strokeColor=none;fillColor=none;spacingLeft=4;fontSize=12;verticalAlign=top;resizable=0;rotatable=0;part=1;" parent="54HAEkATlOph8lzNFxAA-17" vertex="1">
          <mxGeometry y="30" width="170" height="110" as="geometry" />
        </mxCell>
        <mxCell id="54HAEkATlOph8lzNFxAA-19" value="transaccion" style="swimlane;childLayout=stackLayout;horizontal=1;startSize=30;horizontalStack=0;rounded=1;fontSize=14;fontStyle=0;strokeWidth=2;resizeParent=0;resizeLast=1;shadow=0;dashed=0;align=center;" parent="1" vertex="1">
          <mxGeometry x="470" y="50" width="170" height="140" as="geometry" />
        </mxCell>
        <mxCell id="54HAEkATlOph8lzNFxAA-20" value="id_transaccion PK&#xa;id_cliente FK&#xa;fecha_transaccion&#xa;&#xa;" style="align=left;strokeColor=none;fillColor=none;spacingLeft=4;fontSize=12;verticalAlign=top;resizable=0;rotatable=0;part=1;" parent="54HAEkATlOph8lzNFxAA-19" vertex="1">
          <mxGeometry y="30" width="170" height="110" as="geometry" />
        </mxCell>
        <mxCell id="54HAEkATlOph8lzNFxAA-21" value="1" style="text;html=1;resizable=0;autosize=1;align=center;verticalAlign=middle;points=[];fillColor=none;strokeColor=none;rounded=0;" parent="1" vertex="1">
          <mxGeometry x="250" y="96" width="20" height="20" as="geometry" />
        </mxCell>
        <mxCell id="54HAEkATlOph8lzNFxAA-22" value="N" style="text;html=1;resizable=0;autosize=1;align=center;verticalAlign=middle;points=[];fillColor=none;strokeColor=none;rounded=0;" parent="1" vertex="1">
          <mxGeometry x="450" y="96" width="20" height="20" as="geometry" />
        </mxCell>
        <mxCell id="54HAEkATlOph8lzNFxAA-23" value="" style="endArrow=none;html=1;entryX=0;entryY=0.5;entryDx=0;entryDy=0;exitX=1;exitY=0.5;exitDx=0;exitDy=0;" parent="1" source="54HAEkATlOph8lzNFxAA-2" target="54HAEkATlOph8lzNFxAA-20" edge="1">
          <mxGeometry width="50" height="50" relative="1" as="geometry">
            <mxPoint x="260" y="230" as="sourcePoint" />
            <mxPoint x="310" y="180" as="targetPoint" />
          </mxGeometry>
        </mxCell>
        <mxCell id="54HAEkATlOph8lzNFxAA-24" value="producto" style="swimlane;childLayout=stackLayout;horizontal=1;startSize=30;horizontalStack=0;rounded=1;fontSize=14;fontStyle=0;strokeWidth=2;resizeParent=0;resizeLast=1;shadow=0;dashed=0;align=center;" parent="1" vertex="1">
          <mxGeometry x="750" y="50" width="170" height="140" as="geometry" />
        </mxCell>
        <mxCell id="54HAEkATlOph8lzNFxAA-25" value="id_producto PK&#xa;nombre_producto&#xa;precio_producto&#xa;&#xa;&#xa;" style="align=left;strokeColor=none;fillColor=none;spacingLeft=4;fontSize=12;verticalAlign=top;resizable=0;rotatable=0;part=1;" parent="54HAEkATlOph8lzNFxAA-24" vertex="1">
          <mxGeometry y="30" width="170" height="110" as="geometry" />
        </mxCell>
        <mxCell id="54HAEkATlOph8lzNFxAA-26" value="venta" style="swimlane;childLayout=stackLayout;horizontal=1;startSize=30;horizontalStack=0;rounded=1;fontSize=14;fontStyle=0;strokeWidth=2;resizeParent=0;resizeLast=1;shadow=0;dashed=0;align=center;" parent="1" vertex="1">
          <mxGeometry x="610" y="260" width="170" height="140" as="geometry" />
        </mxCell>
        <mxCell id="54HAEkATlOph8lzNFxAA-27" value="id_transaccion FK&#xa;&#xa;------------------------------------&#xa;id_producto FK&#xa;cantidad&#xa;&#xa;&#xa;" style="align=left;strokeColor=none;fillColor=none;spacingLeft=4;fontSize=12;verticalAlign=top;resizable=0;rotatable=0;part=1;" parent="54HAEkATlOph8lzNFxAA-26" vertex="1">
          <mxGeometry y="30" width="170" height="110" as="geometry" />
        </mxCell>
        <mxCell id="54HAEkATlOph8lzNFxAA-28" style="edgeStyle=orthogonalEdgeStyle;rounded=0;orthogonalLoop=1;jettySize=auto;html=1;" parent="1" source="54HAEkATlOph8lzNFxAA-20" edge="1">
          <mxGeometry relative="1" as="geometry">
            <mxPoint x="610" y="300" as="targetPoint" />
            <Array as="points">
              <mxPoint x="555" y="300" />
              <mxPoint x="610" y="300" />
            </Array>
          </mxGeometry>
        </mxCell>
        <mxCell id="54HAEkATlOph8lzNFxAA-29" value="1" style="text;html=1;resizable=0;autosize=1;align=center;verticalAlign=middle;points=[];fillColor=none;strokeColor=none;rounded=0;" parent="1" vertex="1">
          <mxGeometry x="510" y="200" width="20" height="20" as="geometry" />
        </mxCell>
        <mxCell id="54HAEkATlOph8lzNFxAA-30" value="N" style="text;html=1;resizable=0;autosize=1;align=center;verticalAlign=middle;points=[];fillColor=none;strokeColor=none;rounded=0;" parent="1" vertex="1">
          <mxGeometry x="570" y="280" width="20" height="20" as="geometry" />
        </mxCell>
        <mxCell id="54HAEkATlOph8lzNFxAA-31" value="1" style="text;html=1;resizable=0;autosize=1;align=center;verticalAlign=middle;points=[];fillColor=none;strokeColor=none;rounded=0;" parent="1" vertex="1">
          <mxGeometry x="850" y="200" width="20" height="20" as="geometry" />
        </mxCell>
        <mxCell id="54HAEkATlOph8lzNFxAA-32" value="N" style="text;html=1;resizable=0;autosize=1;align=center;verticalAlign=middle;points=[];fillColor=none;strokeColor=none;rounded=0;" parent="1" vertex="1">
          <mxGeometry x="790" y="330" width="20" height="20" as="geometry" />
        </mxCell>
        <mxCell id="54HAEkATlOph8lzNFxAA-33" value="tiene" style="rhombus;whiteSpace=wrap;html=1;" parent="1" vertex="1">
          <mxGeometry x="-85" y="80" width="80" height="80" as="geometry" />
        </mxCell>
        <mxCell id="54HAEkATlOph8lzNFxAA-34" value="involucra" style="rhombus;whiteSpace=wrap;html=1;" parent="1" vertex="1">
          <mxGeometry x="320" y="96" width="80" height="80" as="geometry" />
        </mxCell>
        <mxCell id="54HAEkATlOph8lzNFxAA-35" value="compra" style="rhombus;whiteSpace=wrap;html=1;" parent="1" vertex="1">
          <mxGeometry x="115" y="250" width="80" height="80" as="geometry" />
        </mxCell>
        <mxCell id="54HAEkATlOph8lzNFxAA-36" value="pertenece&amp;nbsp;" style="rhombus;whiteSpace=wrap;html=1;" parent="1" vertex="1">
          <mxGeometry x="115" y="580" width="80" height="80" as="geometry" />
        </mxCell>
        <mxCell id="54HAEkATlOph8lzNFxAA-37" value="" style="endArrow=classic;html=1;exitX=0.5;exitY=1;exitDx=0;exitDy=0;entryX=1;entryY=0.5;entryDx=0;entryDy=0;" parent="1" source="54HAEkATlOph8lzNFxAA-25" target="54HAEkATlOph8lzNFxAA-27" edge="1">
          <mxGeometry width="50" height="50" relative="1" as="geometry">
            <mxPoint x="690" y="330" as="sourcePoint" />
            <mxPoint x="740" y="280" as="targetPoint" />
            <Array as="points">
              <mxPoint x="835" y="345" />
              <mxPoint x="800" y="345" />
            </Array>
          </mxGeometry>
        </mxCell>
        <mxCell id="54HAEkATlOph8lzNFxAA-38" value="&lt;font style=&quot;font-size: 18px&quot;&gt;suscripcion: (&lt;u&gt;id_suscripcion&lt;/u&gt;, nombre_suscripcion, precio_suscripcion)&lt;br&gt;&amp;nbsp; &amp;nbsp; &amp;nbsp; &amp;nbsp; &amp;nbsp; &amp;nbsp; &amp;nbsp; &amp;nbsp; &amp;nbsp; &amp;nbsp; &amp;nbsp; &amp;nbsp; &amp;nbsp; &amp;nbsp; PK&lt;br&gt;cliente: (&lt;u&gt;id_cliente, &lt;/u&gt;id_suscripcion, nombre_cliente, apellido_cliente&amp;nbsp; telefono, email, dia_pago_suscripcion)&lt;br&gt;&amp;nbsp; &amp;nbsp; &amp;nbsp; &amp;nbsp; &amp;nbsp; &amp;nbsp; &amp;nbsp; &amp;nbsp; &amp;nbsp; &amp;nbsp; &amp;nbsp; &amp;nbsp; &amp;nbsp; &amp;nbsp; PK&amp;nbsp; &amp;nbsp; &amp;nbsp; &amp;nbsp; &amp;nbsp; &amp;nbsp; &amp;nbsp; &amp;nbsp; &amp;nbsp;FK&lt;br&gt;pase_diario: (&lt;u&gt;id_pase_diario&lt;/u&gt;, &lt;u&gt;id_cliente&lt;/u&gt;, &lt;u&gt;id_categoria&lt;/u&gt;, fecha_pase_diario)&lt;br&gt;&amp;nbsp; &amp;nbsp; &amp;nbsp; &amp;nbsp; &amp;nbsp; &amp;nbsp; &amp;nbsp; &amp;nbsp; &amp;nbsp; &amp;nbsp; &amp;nbsp; &amp;nbsp; &amp;nbsp; &amp;nbsp; PK&amp;nbsp; &amp;nbsp; &amp;nbsp; &amp;nbsp; &amp;nbsp; &amp;nbsp; &amp;nbsp; &amp;nbsp; &amp;nbsp;FK&amp;nbsp; &amp;nbsp; &amp;nbsp; &amp;nbsp; &amp;nbsp; &amp;nbsp; &amp;nbsp; &amp;nbsp; FK&lt;br&gt;categoria: (&lt;u&gt;id_categoria&lt;/u&gt;, nombre_categoria, precio_categoria)&lt;br&gt;&amp;nbsp; &amp;nbsp; &amp;nbsp; &amp;nbsp; &amp;nbsp; &amp;nbsp; &amp;nbsp; &amp;nbsp; &amp;nbsp; &amp;nbsp; &amp;nbsp; &amp;nbsp; &amp;nbsp; &amp;nbsp; PK&lt;br&gt;transaccion: (&lt;u&gt;id_transaccion&lt;/u&gt;, &lt;u&gt;id_cliente&lt;/u&gt;, fecha_transaccion)&lt;br&gt;&amp;nbsp; &amp;nbsp; &amp;nbsp; &amp;nbsp; &amp;nbsp; &amp;nbsp; &amp;nbsp; &amp;nbsp; &amp;nbsp; &amp;nbsp; &amp;nbsp; &amp;nbsp; &amp;nbsp; &amp;nbsp; PK&amp;nbsp; &amp;nbsp; &amp;nbsp; &amp;nbsp; &amp;nbsp; &amp;nbsp; &amp;nbsp; &amp;nbsp; &amp;nbsp; FK&lt;br&gt;venta: (&lt;u&gt;id_transaccion&lt;/u&gt;, &lt;u&gt;id_producto&lt;/u&gt;, cantidad)&lt;br&gt;&amp;nbsp; &amp;nbsp; &amp;nbsp; &amp;nbsp; &amp;nbsp; &amp;nbsp; &amp;nbsp; &amp;nbsp; &amp;nbsp; &amp;nbsp; &amp;nbsp;FK&amp;nbsp; &amp;nbsp; &amp;nbsp; &amp;nbsp; &amp;nbsp; &amp;nbsp; &amp;nbsp; &amp;nbsp; &amp;nbsp; &amp;nbsp;FK&lt;br&gt;producto: (&lt;u&gt;id_producto&lt;/u&gt;, nombre_producto, precio_producto)&lt;br&gt;&amp;nbsp; &amp;nbsp; &amp;nbsp; &amp;nbsp; &amp;nbsp; &amp;nbsp; &amp;nbsp; &amp;nbsp; &amp;nbsp; &amp;nbsp; &amp;nbsp; &amp;nbsp;PK&lt;br&gt;&lt;/font&gt;" style="text;html=1;strokeColor=none;fillColor=none;align=left;verticalAlign=middle;whiteSpace=wrap;rounded=0;" parent="1" vertex="1">
          <mxGeometry x="310" y="480" width="870" height="330" as="geometry" />
        </mxCell>
        <mxCell id="dTC5P7giElViKmTk4nGR-1" value="Actor" style="shape=umlActor;verticalLabelPosition=bottom;verticalAlign=top;html=1;outlineConnect=0;" parent="1" vertex="1">
          <mxGeometry x="-290" y="370" width="30" height="60" as="geometry" />
        </mxCell>
        <mxCell id="CToc3fJCDKCGvw0AwmT6-1" value="Holaaaa" style="rounded=0;whiteSpace=wrap;html=1;" vertex="1" parent="1">
          <mxGeometry x="-220" y="270" width="120" height="60" as="geometry" />
        </mxCell>
      </root>
    </mxGraphModel>
  </diagram>
</mxfile>
